<?xml version="1.0" standalone="no"?><!DOCTYPE svg PUBLIC "-//W3C//DTD SVG 1.1//EN" "http://www.w3.org/Graphics/SVG/1.1/DTD/svg11.dtd"><svg t="1592048474200" class="icon" viewBox="0 0 1024 1024" version="1.1" xmlns="http://www.w3.org/2000/svg" p-id="1501" xmlns:xlink="http://www.w3.org/1999/xlink" width="200" height="200"><defs><style type="text/css"></style></defs><path d="M0 0m125.582536 0l772.834928 0q125.582536 0 125.582536 125.582536l0 772.834928q0 125.582536-125.582536 125.582536l-772.834928 0q-125.582536 0-125.582536-125.582536l0-772.834928q0-125.582536 125.582536-125.582536Z" fill="#6A6D76" p-id="1502"></path><path d="M780.746627 161.750307H243.63012l-78.614667 124.075545V787.402502H858.984547V285.825852l-78.23792-124.075545z" fill="#F6C37A" p-id="1503"></path><path d="M763.918568 181.341182H260.45818l-73.716949 116.289429v470.181015h650.391955V297.630611l-73.214618-116.289429z" fill="#DA9C44" p-id="1504"></path><path d="M540.507236 442.427275l-72.837871 126.210449-24.73976-33.279372 56.512141-97.703213 41.06549 4.772136zM541.511896 518.781457l-74.972774 125.080206 41.065489 5.400049 58.019132-96.824135-24.111847-33.65612zM185.987736 280.802551h651.14545v28.381653H185.987736z" fill="#F6C37A" p-id="1505"></path><path d="M737.671818 703.387785m-143.038509 0a143.038509 143.038509 0 1 0 286.077017 0 143.038509 143.038509 0 1 0-286.077017 0Z" fill="#6A6D76" p-id="1506"></path><path d="M737.671818 703.387785m-122.191808 0a122.191808 122.191808 0 1 0 244.383615 0 122.191808 122.191808 0 1 0-244.383615 0Z" fill="#FF0000" p-id="1507"></path><path d="M737.671818 703.387785m-109.507972 0a109.507972 109.507972 0 1 0 219.015943 0 109.507972 109.507972 0 1 0-219.015943 0Z" fill="#FFFFFF" p-id="1508"></path><path d="M670.861908 694.471425l47.595781 47.595781 14.441992 14.441992 14.441992-14.441992L816.286485 673.122394l-14.441991-14.441992-68.944813 68.944813-47.595781-47.595782-14.441992 14.441992z" fill="#FF0000" p-id="1509"></path></svg>